<?xml version="1.0" encoding="iso-8859-1"?>
<!-- Generator: Adobe Illustrator 22.0.1, SVG Export Plug-In . SVG Version: 6.00 Build 0)  -->
<svg version="1.1" id="Layer_1" xmlns="http://www.w3.org/2000/svg" xmlns:xlink="http://www.w3.org/1999/xlink" x="0px" y="0px"
	 viewBox="0 0 2048 2048" style="enable-background:new 0 0 2048 2048;" xml:space="preserve">
<g>
	<path style="fill:#465A65;" d="M991.104,939.429l-217.265,217.265c-11.902,11.902-28.044,18.588-44.876,18.588H466.961v151.987
		h324.947c16.832,0,32.975-6.687,44.877-18.589l304.93-304.94L991.104,939.429z"/>
	<path style="fill:#CFD8DD;" d="M519.867,1448.166H325.303V1054.39h194.564c22.091,0,40,17.909,40,40v313.776
		C559.867,1430.258,541.958,1448.166,519.867,1448.166z"/>
	<path style="fill:#3A4C54;" d="M1381.202,1118.699c3.198,1.657,6.483,3.205,9.853,4.644c73.011,31.176,157.479-2.742,188.66-75.765
		c1.439-3.371,2.736-6.749,3.9-10.158l33.833-77.463l-218.151-81.892l-86.021,211.269L1381.202,1118.699z"/>
	<path style="fill:#465A65;" d="M367.883,1607.058H255.899V895.498h111.984c22.091,0,40,17.909,40,40v631.561
		C407.883,1589.15,389.975,1607.058,367.883,1607.058z"/>
	<path style="fill:#465A65;" d="M1537.544,1017.741l-812.53-346.948c-30.475-13.013-44.631-48.267-31.618-78.742l48.958-114.656
		c13.013-30.475,48.267-44.631,78.742-31.618l958.854,409.427c10.158,4.338,14.877,16.089,10.539,26.247l-17.893,41.905
		C1733.751,1014.328,1628.515,1056.585,1537.544,1017.741z"/>
	<circle style="fill:#CFD8DD;" cx="1556.222" cy="892.694" r="45.593"/>
	<path style="fill:#CFD8DD;" d="M1290.963,1177.242l-596.985-254.91c-30.475-13.013-44.631-48.267-31.618-78.742l72.067-168.777
		l707.345,302.034l-72.067,168.777C1356.692,1176.099,1321.438,1190.255,1290.963,1177.242z"/>
</g>
</svg>
