<svg xmlns="http://www.w3.org/2000/svg" viewBox="0 0 512 512"><defs><style>.cls-3,.cls-4,.cls-5{fill:none;stroke-miterlimit:10;stroke-width:10px}.cls-3{stroke:#95cff1}.cls-4{stroke:#fff}.cls-5{stroke:#d689ef}.cls-9{fill:#fff}</style></defs><circle cx="256" cy="256" r="256" style="fill:#2b3060" id="BULINE"/><g id="Icons"><path d="M467.09 115.63a211.7 211.7 0 0 1-5.32 47.29 208.93 208.93 0 0 1-9.68 31 211.14 211.14 0 0 1-52 75.95c-.69.65-1.39 1.29-2.09 1.92a210.74 210.74 0 0 1-283.63 0c-.7-.64-1.4-1.28-2.09-1.93a211.25 211.25 0 0 1-52.33-76.72 208.56 208.56 0 0 1-9.59-31.21 211.26 211.26 0 0 1-5.1-46.28q0-2.55.06-5.07a256.05 256.05 0 0 1 421.74.49c.01 1.5.03 3.03.03 4.56z" style="fill:#394175"/><path class="cls-3" d="m222.23 147.05-35.98-35.98h-61.83"/><path class="cls-4" d="M125.32 177.8H70.57"/><path class="cls-3" d="m242.86 412.08-35.98 35.98h-61.84"/><path class="cls-5" d="M177.79 361.89h-46.7"/><path class="cls-3" d="M151.41 269.84H47.51"/><circle class="cls-3" cx="35.37" cy="269.84" r="16.35"/><circle class="cls-5" cx="115.63" cy="361.89" r="16.35"/><circle class="cls-4" cx="54.22" cy="177.8" r="16.35"/><circle class="cls-3" cx="107.82" cy="111.07" r="16.35"/><circle class="cls-3" cx="132.32" cy="448.06" r="16.35"/><path class="cls-3" d="m267.73 412.08 35.98 35.98h61.83"/><path class="cls-4" d="M322.22 361.89h54.76M284.2 147.05l35.98-35.98h61.83"/><path class="cls-3" d="M392.83 177.8h46.7"/><path class="cls-5" d="M355.85 269.84h103.9"/><circle class="cls-5" cx="471.89" cy="269.84" r="16.35"/><circle class="cls-3" cx="455" cy="177.8" r="16.35"/><circle class="cls-4" cx="393.33" cy="361.89" r="16.35"/><circle class="cls-3" cx="382.14" cy="448.06" r="16.35"/><circle class="cls-4" cx="394.74" cy="111.07" r="16.35"/><path d="M402.2 240.83c0 87.71-104.42 161.38-136.66 182a17.38 17.38 0 0 1-18.75 0c-32.25-20.66-136.66-94.33-136.66-182 0-13.77 1.15-48.8 3.34-74.94a15.14 15.14 0 0 1 22.52-12 85.45 85.45 0 0 0 42.72 11.37c28.48 0 53.72-32.9 69.32-54.27a10.06 10.06 0 0 1 16.26 0c15.6 21.37 40.85 54.27 69.33 54.27a85.48 85.48 0 0 0 42.72-11.37 15.13 15.13 0 0 1 22.51 12c2.2 26.11 3.35 61.17 3.35 74.94z" style="fill:#f0c85c"/><path d="M166.2 240.83c0-13.77 1.15-48.8 3.35-74.94 0-.37.07-.72.12-1.07a85.45 85.45 0 0 1-33.67-10.9 15.14 15.14 0 0 0-22.52 12c-2.19 26.14-3.34 61.17-3.34 74.94 0 87.71 104.41 161.38 136.66 182a17.38 17.38 0 0 0 18.75 0c4.8-3.08 11.23-7.35 18.66-12.66-42.42-30.28-118.01-94.74-118.01-169.37z" style="fill:#dcb557"/><path d="M355.48 261.35s-44.48 52.17-99.32 52.17-99.31-52.17-99.31-52.17A177.89 177.89 0 0 1 180 239.74c18.22-14.35 45.55-30.55 76.12-30.55 50.75 0 92.61 44.65 98.59 51.33.42.49.67.77.72.82s.04.01.05.01z" style="fill:#c9dbf0"/><path class="cls-9" d="M354.75 260.52c-18.22 14.35-45.57 30.55-76.14 30.55-50.74 0-92.59-44.64-98.57-51.33 18.22-14.35 45.55-30.55 76.12-30.55 50.75 0 92.61 44.65 98.59 51.33z"/><path d="M300.82 262.82a44.89 44.89 0 1 1-35.7-43.95 44.91 44.91 0 0 1 35.7 43.95z" style="fill:#2f3c67"/><ellipse cx="265.12" cy="262.82" rx="35.69" ry="43.95" style="fill:#334079"/><path d="M274.33 263a18.39 18.39 0 1 1-13.81-17.83A18.42 18.42 0 0 1 274.33 263z" style="fill:#20253f"/><ellipse cx="260.52" cy="262.98" rx="13.81" ry="17.83" style="fill:#232a4c"/><path d="M355.47 261.34c-108.15-75.8-197.5-.93-198.61 0 .68-.8 44.88-52.15 99.3-52.15s98.62 51.35 99.31 52.15z" style="fill:#efc787"/><path d="M256.15 209.19c-54.42 0-98.62 51.35-99.3 52.15.68-.57 33.89-28.4 84.1-33.19 10.94-6.77 23.63-12.85 37.41-16.21a93.69 93.69 0 0 0-22.21-2.75z" style="fill:#d8b380"/><circle class="cls-9" cx="270.12" cy="251.27" r="13.96"/><circle class="cls-9" cx="273.22" cy="275.67" r="5.77"/></g></svg>